<svg width="1316" height="1024" viewBox="0 0 1316 1024" fill="none" xmlns="http://www.w3.org/2000/svg">
<circle cx="950" cy="887" r="8" fill="#524466"/>
<circle cx="457.5" cy="689.5" r="7.5" fill="#3D3733"/>
<circle cx="984" cy="519" r="6" fill="#FFAB18"/>
<circle cx="923" cy="150" r="14" fill="#F27B39"/>
<path opacity="0.2" d="M46.9715 -51.6816C46.9715 -51.6816 198.582 176.184 405.294 227.929C647.087 288.455 926.406 255.056 989.378 114.295C1038.9 3.58976 988.27 -166.419 791.793 -181.329C653.618 -191.814 575.726 -89.1484 570.839 -11.3702C552.856 274.858 1048.58 458.778 1048.58 458.778" stroke="#F27B39" stroke-width="4.9732" stroke-dasharray="14.92 14.92"/>
<path opacity="0.2" d="M218 1008.88C218 1008.88 403.766 794.367 623.148 768.21C879.76 737.615 1162.67 808.535 1209.01 961.555C1245.45 1081.9 1171.12 1250.13 967.087 1239.74C823.599 1232.43 756.927 1116.64 762.084 1036.01C781.061 739.263 1315 614.999 1315 614.999" stroke="#524466" stroke-width="5.15629" stroke-dasharray="15.47 15.47"/>
</svg>
